<svg id="Layer_1" data-name="Layer 1" xmlns="http://www.w3.org/2000/svg" viewBox="0 0 16 16"><path d="M0,16H16V10.76H0Zm7.07-2.89h6.49a.22.22,0,0,1,.22.22.22.22,0,0,1-.22.23H7.07a.59.59,0,0,0,0-.23A.54.54,0,0,0,7.07,13.11Zm-.58-.22a.45.45,0,1,1-.45.44A.44.44,0,0,1,6.49,12.89Zm-4.05.22H5.91a.54.54,0,0,0,0,.22.59.59,0,0,0,0,.23H2.44a.22.22,0,0,1-.22-.23A.22.22,0,0,1,2.44,13.11Z"/><path d="M0,10.58H16V5.42H0Zm12.62-2.8h.94a.22.22,0,0,1,0,.44h-.94a.51.51,0,0,0,0-.44ZM12,7.56A.44.44,0,1,1,11.6,8,.44.44,0,0,1,12,7.56Zm-9.6.22h9a.62.62,0,0,0,0,.44h-9a.22.22,0,1,1,0-.44Z"/><path d="M0,0V5.24H16V0ZM3.24,2.89h-.8a.22.22,0,0,1-.22-.22.22.22,0,0,1,.22-.23h.8a.85.85,0,0,0,0,.23A.78.78,0,0,0,3.24,2.89Zm.58.22a.45.45,0,1,1,.45-.44A.44.44,0,0,1,3.82,3.11Zm9.74-.22H4.4a.54.54,0,0,0,0-.22.59.59,0,0,0,0-.23h9.16a.22.22,0,0,1,.22.23A.22.22,0,0,1,13.56,2.89Z"/></svg>